<svg xmlns="http://www.w3.org/2000/svg" viewBox="0 0 512 464">
  <g fill="#203e86" fill-rule="evenodd">
    <g fill-rule="nonzero">
      <path d="M127.388 21.56L0 218.711l108.155 211.066 127.388-197.162L127.388 21.56zM63.52 231.722c-10.163 0-18.392-8.229-18.392-18.392 0-10.152 8.229-18.392 18.392-18.392 10.153 0 18.392 8.239 18.392 18.392 0 10.163-8.239 18.392-18.392 18.392zm44.562 87.808c-10.163 0-18.392-8.24-18.392-18.392 0-10.163 8.229-18.392 18.392-18.392 10.152 0 18.392 8.229 18.392 18.392 0 10.152-8.24 18.392-18.392 18.392zm6.053-165.265c-10.152 0-18.392-8.229-18.392-18.392 0-10.152 8.24-18.392 18.392-18.392 10.163 0 18.392 8.24 18.392 18.392 0 10.163-8.229 18.392-18.392 18.392zM163.1 245.91c-10.163 0-18.392-8.229-18.392-18.392s8.229-18.392 18.392-18.392c10.152 0 18.392 8.229 18.392 18.392 0 10.162-8.24 18.392-18.392 18.392zM262.027 249.735L132.149 450.722l245.989 12.328 129.868-200.998-245.979-12.317zm-13.358 168.607c-10.152 0-18.392-8.229-18.392-18.392.001-10.153 8.24-18.392 18.392-18.392 10.163 0 18.392 8.239 18.392 18.392 0 10.163-8.229 18.392-18.392 18.392zm147.367-80.42c-10.163 0-18.392-8.24-18.392-18.392 0-10.163 8.229-18.392 18.392-18.392 10.152 0 18.392 8.229 18.392 18.392 0 10.152-8.24 18.392-18.392 18.392zM400.671 13.404L152.264.95l111.34 217.298L512 230.692 400.671 13.404zm-58.907 122.122c-10.163 0-18.392-8.24-18.392-18.392 0-10.163 8.229-18.392 18.392-18.392 10.152 0 18.392 8.229 18.392 18.392 0 10.153-8.239 18.392-18.392 18.392z"/>
    </g>
    <path d="M90 116h51v43H90zM39 193h51v43H39zM80 280h51v43H80zM141 207h51v43h-51zM318 98h51v43h-51zM221 379h51v43h-51zM369 296h51v43h-51z"/>
  </g>
</svg>
